<svg width="300" height="20" viewBox="0 0 300 20" fill="none" xmlns="http://www.w3.org/2000/svg">
<path d="M20.8681 1.29214L20.8681 4.85977L26.2156 4.85977L26.2156 18.8292L30.1163 18.8292L30.1163 4.85977L35.4638 4.85977L35.4638 1.29214L20.8681 1.29214ZM80.89 1.29214L80.89 12.0954L72.649 1.29214L69.0688 1.29214L69.0688 18.8292L72.8871 18.8292L72.8871 7.6792L81.412 18.8292L84.7084 18.8292L84.7084 1.29214L80.89 1.29214ZM94.0573 1.29214L94.0573 18.8292L107.472 18.8292L107.472 15.3984L97.9214 15.3984L97.9214 11.7487L106.217 11.7487L106.217 8.28141L97.9214 8.28141L97.9214 4.73203L107.344 4.73203L107.344 1.29215L94.0573 1.29214ZM132.296 11.6118L136.764 11.6118C138.751 11.6118 139.621 12.3326 139.621 13.5188C139.621 14.8236 138.605 15.4167 136.874 15.4167L132.296 15.4167L132.296 11.6118ZM132.296 4.69553L136.114 4.69553C137.744 4.69554 138.65 5.34336 138.65 6.52041C138.65 7.82519 137.561 8.34528 135.903 8.34528L132.341 8.34528L132.296 4.69553ZM128.523 1.29215L128.523 18.8292L136.883 18.8292C140.857 18.8292 143.476 17.2324 143.476 14.0206L143.476 13.975C143.476 11.6209 142.221 10.4348 140.179 9.66831C140.89 9.32527 141.486 8.78582 141.896 8.11437C142.307 7.44292 142.515 6.66785 142.496 5.8817L142.496 5.82696C142.511 5.2749 142.412 4.72569 142.204 4.2138C141.996 3.70191 141.684 3.23841 141.287 2.85241C140.028 1.75106 138.382 1.19027 136.709 1.29215L128.523 1.29215ZM189.094 1.29215L189.094 11.3289C189.094 14.1119 187.657 15.5353 185.304 15.5353C182.95 15.5353 181.513 14.0571 181.513 11.2012L181.513 1.29215L177.639 1.29215L177.639 11.3289C177.639 16.4933 180.524 19.1303 185.249 19.1303C189.973 19.1303 192.968 16.5207 192.968 11.2012L192.968 1.29215L189.094 1.29215ZM200.476 1.29215L200.476 4.85978L205.833 4.85978L205.833 18.8292L209.706 18.8292L209.706 4.85978L215.063 4.85978L215.063 1.29215L200.476 1.29215ZM222.782 18.8292L226.655 18.8292L226.655 1.29215L222.782 1.29215L222.782 18.8292ZM273.592 1.29215L273.592 11.329C273.592 14.1119 272.164 15.5353 269.801 15.5353C267.439 15.5353 266.001 14.0571 266.001 11.2012L266.001 1.29215L262.128 1.29215L262.128 11.329C262.128 16.4933 265.012 19.1303 269.746 19.1303C274.48 19.1303 277.465 16.5207 277.465 11.2012L277.465 1.29215L273.592 1.29215ZM286.613 1.29215L286.613 18.8292L300 18.8292L300 15.3984L290.45 15.3984L290.45 11.7487L298.746 11.7487L298.746 8.28142L290.45 8.28142L290.45 4.73204L299.872 4.73204L299.872 1.29215L286.613 1.29215ZM0.723388 6.32879C0.723388 9.82342 3.02173 10.7997 6.55618 11.6939C9.49548 12.4421 10.0998 12.944 10.0998 13.9294L10.0998 13.975C10.0998 15.0152 9.1384 15.6265 7.56345 15.6265C5.61078 15.5761 3.74298 14.8206 2.30753 13.5005L0.0183404 16.2379C2.07626 18.0542 4.7319 19.0543 7.48102 19.0482C11.281 19.0482 13.9456 17.0864 13.9456 13.5735L13.9456 13.5188C13.9456 10.4713 11.9403 9.18472 8.36923 8.25403C5.32922 7.48758 4.56921 7.11349 4.56921 5.95469C4.56921 5.097 5.34753 4.43092 6.8309 4.43092C8.49957 4.52618 10.0982 5.13152 11.4092 6.16455L13.4237 3.24476C11.5735 1.76873 9.2648 0.981465 6.89499 1.01841C3.29642 1.01841 0.732574 3.11701 0.732574 6.30142M46.0672 10.0333L46.0672 9.97854C46.035 9.26952 46.1476 8.56136 46.3984 7.89706C46.6492 7.23277 47.0329 6.6262 47.5262 6.1142C48.0195 5.60219 48.612 5.19543 49.2679 4.91862C49.9238 4.64181 50.6292 4.50072 51.3415 4.50392C52.0547 4.50609 52.7602 4.6504 53.4166 4.92835C54.073 5.20631 54.667 5.6123 55.1636 6.12242C55.6601 6.63255 56.0493 7.2365 56.3081 7.89874C56.5669 8.56098 56.6902 9.26812 56.6707 9.97854L56.6707 10.0333C56.7017 10.7428 56.5878 11.4511 56.336 12.1154C56.0841 12.7798 55.6995 13.3862 55.2056 13.8981C54.7116 14.41 54.1184 14.8166 53.4621 15.0933C52.8058 15.37 52.0999 15.511 51.3872 15.5079C50.6745 15.5058 49.9693 15.3614 49.3134 15.0833C48.6575 14.8053 48.0641 14.3991 47.5683 13.8889C47.0724 13.3786 46.6842 12.7746 46.4264 12.1124C46.1685 11.4502 46.0464 10.7433 46.0672 10.0333ZM42.0108 10.0333L42.0108 10.088C42.0937 12.5095 43.1191 14.8038 44.8699 16.485C46.6208 18.1663 48.9595 19.1025 51.391 19.0953C53.8224 19.0882 56.1557 18.1384 57.8966 16.4469C59.6375 14.7555 60.6493 12.4552 60.7179 10.0333L60.7179 9.97854C60.635 7.55705 59.6096 5.26277 57.8588 3.58153C56.108 1.90029 53.7692 0.964105 51.3377 0.971221C48.9063 0.978336 46.573 1.92819 44.8322 3.61965C43.0912 5.31111 42.0794 7.61136 42.0108 10.0333ZM154.858 10.0333L154.858 9.97854C154.825 9.26952 154.938 8.56136 155.189 7.89707C155.44 7.23277 155.823 6.6262 156.317 6.1142C156.81 5.60219 157.402 5.19544 158.058 4.91862C158.714 4.64181 159.42 4.50072 160.132 4.50392C160.845 4.50609 161.551 4.6504 162.207 4.92836C162.863 5.20631 163.457 5.6123 163.954 6.12243C164.451 6.63255 164.84 7.23651 165.098 7.89875C165.357 8.56098 165.481 9.26812 165.461 9.97854L165.461 10.0333C165.493 10.7423 165.381 11.4505 165.13 12.1148C164.879 12.7791 164.495 13.3856 164.002 13.8976C163.509 14.4096 162.916 14.8164 162.26 15.0932C161.605 15.37 160.899 15.5111 160.187 15.5079C159.473 15.507 158.767 15.3635 158.11 15.086C157.453 14.8085 156.859 14.4025 156.362 13.8922C155.865 13.3818 155.476 12.7773 155.218 12.1145C154.959 11.4517 154.837 10.744 154.858 10.0333ZM150.801 10.0333L150.801 10.088C150.884 12.5095 151.909 14.8038 153.66 16.485C155.411 18.1663 157.75 19.1025 160.181 19.0954C162.613 19.0882 164.946 18.1384 166.687 16.4469C168.428 14.7555 169.44 12.4552 169.508 10.0333L169.508 9.97854C169.509 8.77053 169.265 7.57477 168.792 6.46286C168.318 5.35095 167.624 4.34575 166.751 3.50747C165.878 2.66918 164.844 2.01504 163.712 1.58422C162.579 1.15339 161.371 0.954745 160.159 1.00017C158.941 0.962293 157.728 1.16859 156.591 1.60682C155.455 2.04505 154.418 2.70629 153.542 3.55131C152.667 4.39633 151.971 5.40793 151.495 6.52609C151.02 7.64426 150.774 8.84621 150.774 10.0607M239.172 10.0607L239.172 10.0059C239.141 9.29645 239.255 8.58809 239.507 7.92376C239.759 7.25943 240.143 6.65297 240.637 6.14111C241.131 5.62924 241.724 5.22264 242.381 4.94593C243.037 4.66922 243.743 4.52816 244.456 4.5313C245.169 4.53347 245.874 4.67778 246.531 4.95573C247.187 5.23369 247.781 5.63968 248.278 6.14981C248.774 6.65993 249.163 7.26389 249.422 7.92612C249.681 8.58836 249.804 9.2955 249.785 10.0059L249.785 10.0607C249.79 10.8844 249.628 11.7006 249.309 12.4604L246.415 9.85081L243.952 12.5881L246.818 15.0243C245.984 15.3987 245.068 15.5567 244.156 15.4834C243.244 15.4101 242.366 15.108 241.602 14.6053C240.839 14.1025 240.216 13.4154 239.791 12.608C239.366 11.8006 239.153 10.8992 239.172 9.98767M235.125 9.98767L235.125 10.0424C235.121 11.2519 235.361 12.4499 235.832 13.5647C236.303 14.6796 236.994 15.6883 237.865 16.5307C238.736 17.3731 239.769 18.0319 240.901 18.4675C242.034 18.9032 243.243 19.1069 244.456 19.0664C246.303 19.0973 248.121 18.6002 249.693 17.6339L251.616 19.3493L254.07 16.612L252.239 15.0882C253.252 13.6023 253.794 11.8478 253.795 10.0515L253.795 9.9968C253.798 8.79202 253.558 7.59895 253.089 6.48866C252.619 5.37837 251.931 4.37356 251.063 3.53409C250.196 2.69461 249.168 2.03765 248.041 1.60232C246.914 1.16699 245.71 0.962212 244.501 1.00017C243.284 0.963518 242.072 1.17079 240.937 1.60968C239.802 2.04857 238.767 2.71015 237.894 3.55517C237.02 4.4002 236.326 5.41145 235.852 6.52895C235.378 7.64645 235.134 8.84744 235.134 10.0607" fill="#E4C9AF"/>
</svg>
