<svg width="13" height="13" viewBox="0 0 13 13" fill="none" xmlns="http://www.w3.org/2000/svg">
<path id="Vector" d="M12.5511 1.86615L11.4404 0.755458C11.2875 0.602537 11.0963 0.518029 10.8669 0.501932C10.6375 0.485835 10.4585 0.570343 10.3297 0.755458L8.67572 2.97684C8.54695 3.16195 8.47653 3.35511 8.46445 3.55632C8.45238 3.75754 8.5228 3.9346 8.67572 4.08752L9.32765 4.75152C9.06205 5.10566 8.7703 5.47588 8.45238 5.86221C8.13446 6.24854 7.79442 6.62279 7.43224 6.98497C7.07005 7.34715 6.6958 7.6872 6.30948 8.00511C5.92315 8.32303 5.55292 8.61478 5.19879 8.88039L4.53479 8.22846C4.38187 8.07554 4.2048 8.00511 4.00359 8.01719C3.80238 8.02926 3.60922 8.09968 3.4241 8.22846L1.20272 9.88242C1.01761 10.0112 0.9331 10.1903 0.949197 10.4197C0.965294 10.649 1.0498 10.8402 1.20272 10.9931L2.31341 12.1038C2.61926 12.4096 2.96534 12.5384 3.35166 12.4901C3.73799 12.4418 4.13236 12.3131 4.53479 12.1038C4.53479 12.1038 4.67362 12.0213 4.9513 11.8563C5.22897 11.6913 5.58712 11.4579 6.02577 11.1561C6.46441 10.8543 6.95335 10.4901 7.4926 10.0635C8.03185 9.63694 8.56304 9.16208 9.0862 8.63893C9.60935 8.11578 10.0842 7.58458 10.5108 7.04533C10.9373 6.50608 11.3015 6.01715 11.6034 5.5785C11.9052 5.13986 12.1386 4.78171 12.3036 4.50403C12.4686 4.22636 12.5511 4.08752 12.5511 4.08752C12.7603 3.6851 12.8891 3.29073 12.9374 2.9044C12.9857 2.51807 12.8569 2.17199 12.5511 1.86615Z" fill="#E4C9AF"/>
</svg>
