<svg width="119" height="40" viewBox="0 0 119 40" fill="none" xmlns="http://www.w3.org/2000/svg">
<g id="Google_2015_logo 1">
<path id="Vector" d="M50.3259 20.513C50.3259 26.0652 45.9824 30.1565 40.6519 30.1565C35.3215 30.1565 30.978 26.0652 30.978 20.513C30.978 14.9217 35.3215 10.8696 40.6519 10.8696C45.9824 10.8696 50.3259 14.9217 50.3259 20.513ZM46.0911 20.513C46.0911 17.0435 43.5737 14.6696 40.6519 14.6696C37.7302 14.6696 35.2128 17.0435 35.2128 20.513C35.2128 23.9478 37.7302 26.3565 40.6519 26.3565C43.5737 26.3565 46.0911 23.9435 46.0911 20.513Z" fill="#AEABA8"/>
<path id="Vector_2" d="M71.1955 20.513C71.1955 26.0652 66.852 30.1565 61.5216 30.1565C56.1911 30.1565 51.8477 26.0652 51.8477 20.513C51.8477 14.9261 56.1911 10.8696 61.5216 10.8696C66.852 10.8696 71.1955 14.9217 71.1955 20.513ZM66.9607 20.513C66.9607 17.0435 64.4433 14.6696 61.5216 14.6696C58.5998 14.6696 56.0824 17.0435 56.0824 20.513C56.0824 23.9478 58.5998 26.3565 61.5216 26.3565C64.4433 26.3565 66.9607 23.9435 66.9607 20.513Z" fill="#AEABA8"/>
<path id="Vector_3" d="M91.1955 11.4522V28.7652C91.1955 35.887 86.9955 38.7957 82.0302 38.7957C77.3563 38.7957 74.5433 35.6696 73.4824 33.113L77.1694 31.5783C77.8259 33.1478 79.4346 35 82.0259 35C85.2042 35 87.1737 33.0391 87.1737 29.3478V27.9609H87.0259C86.0781 29.1304 84.252 30.1522 81.9476 30.1522C77.1259 30.1522 72.7085 25.9522 72.7085 20.5478C72.7085 15.1043 77.1259 10.8696 81.9476 10.8696C84.2476 10.8696 86.0737 11.8913 87.0259 13.0261H87.1737V11.4565H91.1955V11.4522ZM87.4737 20.5478C87.4737 17.1522 85.2085 14.6696 82.3259 14.6696C79.4042 14.6696 76.9563 17.1522 76.9563 20.5478C76.9563 23.9087 79.4042 26.3565 82.3259 26.3565C85.2085 26.3565 87.4737 23.9087 87.4737 20.5478Z" fill="#AEABA8"/>
<path id="Vector_4" d="M97.8262 1.30435V29.5652H93.6958V1.30435H97.8262Z" fill="#AEABA8"/>
<path id="Vector_5" d="M113.922 23.687L117.209 25.8783C116.148 27.4478 113.591 30.1522 109.174 30.1522C103.696 30.1522 99.6045 25.9174 99.6045 20.5087C99.6045 14.7739 103.731 10.8652 108.7 10.8652C113.704 10.8652 116.152 14.8478 116.952 17L117.391 18.0957L104.5 23.4348C105.487 25.3696 107.022 26.3565 109.174 26.3565C111.331 26.3565 112.826 25.2957 113.922 23.687ZM103.804 20.2174L112.422 16.6391C111.948 15.4348 110.522 14.5957 108.844 14.5957C106.691 14.5957 103.696 16.4957 103.804 20.2174Z" fill="#AEABA8"/>
<path id="Vector_6" d="M15.3437 18.0043V13.913H29.1306C29.2654 14.6261 29.335 15.4696 29.335 16.3826C29.335 19.4522 28.4959 23.2478 25.7915 25.9522C23.1611 28.6913 19.8002 30.1522 15.348 30.1522C7.09587 30.1522 0.156738 23.4304 0.156738 15.1783C0.156738 6.92608 7.09587 0.204346 15.348 0.204346C19.9133 0.204346 23.1654 1.99565 25.6089 4.33043L22.722 7.21739C20.9698 5.57391 18.5959 4.29565 15.3437 4.29565C9.31761 4.29565 4.60456 9.15217 4.60456 15.1783C4.60456 21.2043 9.31761 26.0609 15.3437 26.0609C19.2524 26.0609 21.4785 24.4913 22.9046 23.0652C24.0611 21.9087 24.822 20.2565 25.122 18L15.3437 18.0043Z" fill="#AEABA8"/>
</g>
</svg>
