<svg width="176" height="40" viewBox="0 0 176 40" fill="none" xmlns="http://www.w3.org/2000/svg">
<g id="houzz-logo" clip-path="url(#clip0_324_2074)">
<g id="Group">
<path id="Vector" d="M98.4913 20.1379C97.122 18.7737 95.4381 17.7644 93.5867 17.1982C91.7353 16.632 89.7729 16.5261 87.8709 16.8898C85.969 17.2535 84.1855 18.0757 82.6763 19.2846C81.1671 20.4935 79.9782 22.0521 79.2135 23.8244C78.5988 25.2566 78.287 26.7997 78.2976 28.3573C78.2885 29.8886 78.5864 31.4064 79.1739 32.8216C79.7613 34.2368 80.6266 35.5209 81.7188 36.5987C82.7992 37.6514 84.0701 38.4907 85.4642 39.072C88.4358 40.2867 91.7681 40.2867 94.7396 39.072C96.1338 38.4907 97.4047 37.6514 98.485 36.5987C99.5783 35.5213 100.445 34.2374 101.033 32.8222C101.622 31.407 101.921 29.8891 101.913 28.3573C101.924 26.7997 101.612 25.2565 100.997 23.8244C100.402 22.4493 99.5521 21.1985 98.4913 20.1379ZM96.2378 31.1974C95.9561 32.0094 95.5117 32.756 94.9316 33.3918C94.3504 34.005 93.6472 34.4908 92.8669 34.8181C91.0928 35.5183 89.1174 35.5183 87.3432 34.8181C86.5627 34.4912 85.8594 34.0053 85.2785 33.3918C84.6965 32.7568 84.2509 32.0101 83.9692 31.1974C83.3397 29.3538 83.3397 27.3546 83.9692 25.5109C84.2511 24.6983 84.6966 23.9516 85.2785 23.3165C85.8596 22.7031 86.5628 22.2173 87.3432 21.8902C89.1169 21.1878 91.0932 21.1878 92.8669 21.8902C93.6472 22.2175 94.3504 22.7032 94.9316 23.3165C95.5114 23.9525 95.9558 24.699 96.2378 25.5109C96.8668 27.3546 96.8668 29.3537 96.2378 31.1974Z" fill="#AEABA8"/>
<path id="Vector_2" d="M151.522 21.467V17.2789H133.953V21.652H145.18L133.547 35.2194V39.4513H152.155V35.0783H139.804L151.522 21.467Z" fill="#AEABA8"/>
<path id="Vector_3" d="M163.104 35.0783L174.822 21.467V17.2789H157.253V21.652H168.48L156.847 35.2194V39.4513H175.455V35.0783H163.104Z" fill="#AEABA8"/>
<path id="Vector_4" d="M67.9241 17.4796C64.6382 16.1253 60.6064 16.6833 57.9972 18.7774V9.44507H53.0684V39.4482H58.0003V27.652C58.0003 25.4075 58.6487 21.6426 62.9826 21.6426C66.9609 21.6426 68.3741 24.8808 68.3741 27.652V39.4451H73.2998V26.0375C73.2966 22.0062 71.339 18.8871 67.9241 17.4796Z" fill="#AEABA8"/>
<path id="Vector_5" d="M122.988 29.3855C122.983 30.0795 122.887 30.7698 122.701 31.4388C122.514 32.118 122.2 32.756 121.776 33.3197C121.335 33.8994 120.768 34.3721 120.117 34.7021C119.311 35.052 118.44 35.2326 117.56 35.2326C116.68 35.2326 115.81 35.052 115.003 34.7021C114.352 34.3719 113.785 33.8993 113.344 33.3197C112.919 32.7564 112.606 32.1183 112.419 31.4388C112.233 30.7698 112.136 30.0796 112.129 29.3855V17.2413H107.238V29.8745C107.238 34.5767 109.322 37.7115 113.517 39.2789C116.148 40.2259 119.03 40.2193 121.656 39.2601C126.806 37.3228 127.885 33.0783 127.885 29.8557V17.2946H122.988V29.3855Z" fill="#AEABA8"/>
</g>
<g id="Group_2">
<path id="Vector_6" d="M22.1199 39.4483H35.4082V17.0408L8.80955 9.44514V0H0V39.4483H13.2883V27.0282H22.1199V39.4483Z" fill="#AEABA8"/>
</g>
</g>
<defs>
<clipPath id="clip0_324_2074">
<rect width="175.455" height="40" fill="white"/>
</clipPath>
</defs>
</svg>
