<svg width="245" height="15" viewBox="0 0 245 15" fill="none" xmlns="http://www.w3.org/2000/svg">
<g clip-path="url(#clip0_1124_1795)">
<path d="M16.9904 0.238558L16.9904 3.15357L21.3443 3.15357L21.3443 14.5676L24.5203 14.5676L24.5203 3.15357L28.8741 3.15357L28.8741 0.238559L16.9904 0.238558ZM65.8597 0.23856L65.8597 9.0656L59.15 0.23856L56.235 0.23856L56.235 14.5676L59.3438 14.5676L59.3438 5.45725L66.2847 14.5676L68.9686 14.5676L68.9686 0.23856L65.8597 0.23856ZM76.5804 0.238561L76.5804 14.5676L87.5024 14.5676L87.5024 11.7644L79.7265 11.7644L79.7265 8.7823L86.481 8.7823L86.481 5.9493L79.7265 5.9493L79.7265 3.0492L87.398 3.0492L87.398 0.238561L76.5804 0.238561ZM107.714 8.67047L111.352 8.67047C112.97 8.67047 113.678 9.25944 113.678 10.2286C113.678 11.2947 112.85 11.7793 111.441 11.7793L107.714 11.7793L107.714 8.67047ZM107.714 3.01938L110.822 3.01938C112.149 3.01938 112.888 3.5487 112.888 4.51043C112.888 5.57653 112 6.00148 110.651 6.00148L107.751 6.00148L107.714 3.01938ZM104.642 0.238562L104.642 14.5676L111.449 14.5676C114.684 14.5676 116.816 13.2629 116.816 10.6387L116.816 10.6014C116.816 8.67793 115.795 7.70874 114.133 7.0825C114.711 6.80221 115.196 6.36144 115.531 5.81282C115.865 5.26419 116.034 4.6309 116.019 3.98856L116.019 3.94383C116.031 3.49276 115.95 3.04401 115.781 2.62576C115.611 2.20751 115.357 1.8288 115.035 1.51341C114.009 0.613525 112.669 0.155321 111.307 0.238562L104.642 0.238562ZM153.959 0.238564L153.959 8.43936C153.959 10.7132 152.788 11.8762 150.872 11.8762C148.956 11.8762 147.786 10.6685 147.786 8.33498L147.786 0.238564L144.632 0.238564L144.632 8.43936C144.632 12.659 146.98 14.8136 150.827 14.8136C154.674 14.8136 157.112 12.6814 157.112 8.33498L157.112 0.238564L153.959 0.238564ZM163.226 0.238564L163.226 3.15357L167.587 3.15357L167.587 14.5676L170.74 14.5676L170.74 3.15357L175.102 3.15357L175.102 0.238565L163.226 0.238564ZM181.387 14.5676L184.54 14.5676L184.54 0.238565L181.387 0.238565L181.387 14.5676ZM222.756 0.238567L222.756 8.43936C222.756 10.7132 221.593 11.8762 219.669 11.8762C217.746 11.8762 216.575 10.6685 216.575 8.33499L216.575 0.238567L213.422 0.238567L213.422 8.43936C213.422 12.659 215.77 14.8136 219.625 14.8136C223.479 14.8136 225.909 12.6814 225.909 8.33499L225.909 0.238567L222.756 0.238567ZM233.357 0.238567L233.357 14.5676L244.257 14.5676L244.257 11.7644L236.481 11.7644L236.481 8.7823L243.235 8.7823L243.235 5.9493L236.481 5.9493L236.481 3.0492L244.152 3.0492L244.152 0.238568L233.357 0.238567ZM0.588867 4.35386C0.588867 7.20923 2.46013 8.00695 5.33786 8.73756C7.731 9.3489 8.22305 9.75894 8.22305 10.5641L8.22305 10.6014C8.22305 11.4513 7.44026 11.9508 6.15794 11.9508C4.56811 11.9096 3.04738 11.2923 1.87863 10.2137L0.0148157 12.4503C1.69034 13.9344 3.85255 14.7515 6.09085 14.7465C9.18478 14.7465 11.3543 13.1436 11.3543 10.2733L11.3543 10.2286C11.3543 7.73856 9.72157 6.68736 6.81401 5.92693C4.33887 5.30068 3.72008 4.99502 3.72008 4.0482C3.72008 3.3474 4.35379 2.80317 5.56154 2.80317C6.92014 2.881 8.22174 3.37561 9.28917 4.21967L10.9293 1.83399C9.42288 0.627969 7.5432 -0.015287 5.61371 0.0148995C2.68379 0.0148993 0.596329 1.72961 0.596329 4.3315M37.5073 7.38071L37.5073 7.33597C37.4811 6.75665 37.5728 6.17803 37.777 5.63526C37.9812 5.09248 38.2936 4.59687 38.6952 4.17853C39.0968 3.76018 39.5793 3.42783 40.1133 3.20165C40.6473 2.97548 41.2217 2.8602 41.8016 2.86281C42.3823 2.86458 42.9567 2.98249 43.4911 3.20961C44.0256 3.43672 44.5092 3.76844 44.9135 4.18525C45.3178 4.60206 45.6346 5.09553 45.8454 5.63663C46.0561 6.17773 46.1565 6.75551 46.1405 7.33597L46.1405 7.38071C46.1658 7.9604 46.0731 8.53918 45.868 9.08198C45.663 9.62478 45.3499 10.1203 44.9477 10.5385C44.5455 10.9568 44.0626 11.289 43.5282 11.5151C42.9938 11.7412 42.4191 11.8564 41.8389 11.8539C41.2585 11.8521 40.6844 11.7342 40.1504 11.507C39.6163 11.2798 39.1332 10.9479 38.7295 10.531C38.3258 10.1141 38.0096 9.62055 37.7997 9.07949C37.5898 8.53843 37.4904 7.96081 37.5073 7.38071ZM34.2047 7.38071L34.2047 7.42544C34.2721 9.40397 35.107 11.2786 36.5325 12.6523C37.958 14.026 39.8622 14.7909 41.8419 14.7851C43.8216 14.7793 45.7213 14.0032 47.1387 12.6211C48.5561 11.2391 49.3799 9.3596 49.4358 7.38071L49.4358 7.33597C49.3683 5.35745 48.5334 3.48285 47.1079 2.10916C45.6824 0.735461 43.7782 -0.0294715 41.7985 -0.0236576C39.8189 -0.0178437 37.9192 0.75826 36.5018 2.1403C35.0844 3.52235 34.2605 5.40182 34.2047 7.38071ZM126.083 7.38071L126.083 7.33598C126.057 6.75666 126.149 6.17804 126.353 5.63526C126.557 5.09248 126.87 4.59687 127.271 4.17853C127.673 3.76018 128.155 3.42783 128.689 3.20166C129.223 2.97548 129.798 2.8602 130.378 2.86282C130.958 2.86459 131.533 2.9825 132.067 3.20961C132.602 3.43672 133.085 3.76844 133.49 4.18525C133.894 4.60206 134.211 5.09554 134.421 5.63663C134.632 6.17773 134.732 6.75551 134.717 7.33598L134.717 7.38071C134.743 7.96003 134.651 8.53865 134.447 9.08143C134.243 9.6242 133.93 10.1198 133.529 10.5382C133.127 10.9565 132.645 11.2889 132.111 11.515C131.577 11.7412 131.002 11.8565 130.422 11.8539C129.841 11.8531 129.266 11.7359 128.732 11.5091C128.197 11.2824 127.713 10.9507 127.308 10.5337C126.904 10.1167 126.587 9.62278 126.376 9.08122C126.166 8.53967 126.066 7.96144 126.083 7.38071ZM122.781 7.38071L122.781 7.42544C122.848 9.40397 123.683 11.2786 125.109 12.6523C126.534 14.026 128.438 14.7909 130.418 14.7851C132.398 14.7793 134.297 14.0032 135.715 12.6211C137.132 11.2391 137.956 9.3596 138.012 7.38071L138.012 7.33598C138.013 6.34895 137.814 5.37192 137.428 4.46341C137.042 3.5549 136.477 2.73358 135.767 2.04864C135.056 1.3637 134.214 0.829219 133.292 0.477204C132.37 0.12519 131.386 -0.0371199 130.4 -5.61759e-06C129.408 -0.0309526 128.42 0.137606 127.495 0.495671C126.569 0.853737 125.725 1.39402 125.013 2.08446C124.3 2.77491 123.733 3.60145 123.346 4.51507C122.959 5.4287 122.759 6.41078 122.758 7.40308M194.731 7.40308L194.731 7.35835C194.706 6.77866 194.799 6.19988 195.004 5.65707C195.209 5.11427 195.522 4.61874 195.924 4.20051C196.327 3.78228 196.809 3.45006 197.344 3.22397C197.878 2.99787 198.453 2.88262 199.033 2.88519C199.614 2.88696 200.188 3.00487 200.723 3.23198C201.257 3.45909 201.741 3.79081 202.145 4.20762C202.549 4.62443 202.866 5.11791 203.077 5.659C203.288 6.2001 203.388 6.77788 203.372 7.35835L203.372 7.40308C203.376 8.0761 203.244 8.74303 202.984 9.36381L200.629 7.23161L198.623 9.46819L200.957 11.4587C200.277 11.7647 199.532 11.8937 198.789 11.8338C198.047 11.774 197.332 11.5271 196.71 11.1163C196.089 10.7055 195.581 10.1441 195.235 9.48444C194.889 8.82474 194.716 8.0882 194.731 7.34344M191.436 7.34344L191.436 7.38817C191.433 8.37644 191.628 9.35528 192.012 10.2662C192.395 11.1771 192.958 12.0013 193.667 12.6896C194.377 13.3779 195.217 13.9161 196.139 14.2721C197.061 14.6281 198.045 14.7945 199.033 14.7614C200.537 14.7867 202.017 14.3805 203.298 13.591L204.863 14.9925L206.861 12.756L205.37 11.5109C206.195 10.2968 206.636 8.86329 206.638 7.39562L206.638 7.35089C206.64 6.3665 206.444 5.39168 206.062 4.48449C205.68 3.5773 205.119 2.7563 204.413 2.07039C203.707 1.38448 202.87 0.847691 201.952 0.491997C201.034 0.136304 200.054 -0.0310181 199.07 -2.61591e-06C198.08 -0.0299513 197.093 0.139401 196.169 0.498009C195.245 0.856616 194.402 1.39717 193.69 2.08762C192.979 2.77807 192.414 3.60433 192.028 4.51741C191.642 5.43049 191.443 6.41178 191.444 7.40308" fill="#302B25"/>
</g>
<defs>
<clipPath id="clip0_1124_1795">
<rect width="15" height="244.257" fill="white" transform="translate(244.257) rotate(90)"/>
</clipPath>
</defs>
</svg>
