<svg width="21" height="328" viewBox="0 0 21 328" fill="none" xmlns="http://www.w3.org/2000/svg">
<path d="M0.320026 304.84H4.23003V299H19.54V294.74H4.23003V288.9H0.320026V304.84ZM0.320026 239.29H12.16L0.320026 248.29V252.2H19.54V248.03H7.32003L19.54 238.72V235.12H0.320026V239.29ZM0.320026 224.91H19.54V210.26H15.78V220.69H11.78V211.63H7.98003V220.69H4.09003V210.4H0.320026V224.91ZM11.63 183.15V178.27C11.63 176.1 12.42 175.15 13.72 175.15C15.15 175.15 15.8 176.26 15.8 178.15V183.15H11.63ZM4.05003 183.15V178.98C4.05003 177.2 4.76003 176.21 6.05003 176.21C7.48003 176.21 8.05003 177.4 8.05003 179.21V183.1L4.05003 183.15ZM0.320026 187.27H19.54V178.14C19.54 173.8 17.79 170.94 14.27 170.94H14.22C11.64 170.94 10.34 172.31 9.50003 174.54C9.12406 173.764 8.53284 173.114 7.79696 172.665C7.06107 172.216 6.21162 171.989 5.35003 172.01H5.29003C4.685 171.993 4.08307 172.102 3.52206 172.329C2.96104 172.556 2.45307 172.897 2.03003 173.33C0.822976 174.706 0.208371 176.503 0.320026 178.33V187.27ZM0.320026 121.12H11.32C14.37 121.12 15.93 122.69 15.93 125.26C15.93 127.83 14.31 129.4 11.18 129.4H0.320026V133.63H11.32C16.98 133.63 19.87 130.48 19.87 125.32C19.87 120.16 17.01 116.89 11.18 116.89H0.320026V121.12ZM0.320026 108.69H4.23003V102.84H19.54V98.61H4.23003V92.76H0.320026V108.69ZM19.54 84.33V80.1H0.320026V84.33H19.54ZM0.320026 28.84H11.32C14.37 28.84 15.93 30.4 15.93 32.98C15.93 35.56 14.31 37.13 11.18 37.13H0.320026V41.36H11.32C16.98 41.36 19.87 38.21 19.87 33.04C19.87 27.87 17.01 24.61 11.18 24.61H0.320026V28.84ZM0.320026 14.62H19.54V0H15.78V10.43H11.78V1.37H7.98003V10.43H4.09003V0.14H0.320026V14.62ZM5.84003 326.84C9.67003 326.84 10.74 324.33 11.72 320.47C12.54 317.26 13.09 316.6 14.17 316.6H14.22C15.36 316.6 16.03 317.65 16.03 319.37C15.9748 321.503 15.1467 323.542 13.7 325.11L16.7 327.61C18.6907 325.363 19.7868 322.462 19.78 319.46C19.78 315.31 17.63 312.4 13.78 312.4H13.72C10.38 312.4 8.97003 314.59 7.95003 318.49C7.11003 321.81 6.70003 322.64 5.43003 322.64C4.49003 322.64 3.76003 321.79 3.76003 320.17C3.86442 318.348 4.52786 316.602 5.66003 315.17L2.46003 312.97C0.842356 314.991 -0.0204643 317.512 0.0200258 320.1C0.0200258 324.03 2.32003 326.83 5.81003 326.83M9.90003 277.32H9.84003C9.06296 277.355 8.28684 277.232 7.5588 276.958C6.83075 276.684 6.16598 276.265 5.60483 275.727C5.04369 275.188 4.5979 274.541 4.29452 273.825C3.99115 273.108 3.83652 272.338 3.84003 271.56C3.8424 270.781 4.00056 270.011 4.30519 269.294C4.60982 268.577 5.05477 267.928 5.61385 267.386C6.17293 266.844 6.83485 266.419 7.56064 266.136C8.28643 265.853 9.06143 265.719 9.84003 265.74H9.90003C10.6776 265.706 11.4539 265.831 12.182 266.106C12.9101 266.381 13.5747 266.801 14.1357 267.34C14.6967 267.88 15.1423 268.527 15.4456 269.244C15.7489 269.961 15.9035 270.732 15.9 271.51C15.8977 272.288 15.7395 273.059 15.4347 273.775C15.13 274.491 14.6849 275.139 14.1256 275.681C13.5664 276.222 12.9044 276.646 12.1787 276.928C11.4529 277.209 10.6781 277.343 9.90003 277.32ZM9.90003 281.75H9.96003C12.6139 281.66 15.1283 280.54 16.9709 278.628C18.8135 276.715 19.8395 274.161 19.8317 271.506C19.8239 268.851 18.7829 266.302 16.9291 264.401C15.0754 262.5 12.5544 261.395 9.90003 261.32H9.84003C7.18616 261.41 4.6717 262.53 2.82912 264.442C0.986536 266.354 -0.0394927 268.909 -0.0316941 271.564C-0.0238956 274.219 1.01712 276.768 2.8709 278.669C4.72468 280.57 7.24568 281.675 9.90003 281.75ZM9.90003 158.51H9.84003C9.06296 158.545 8.28684 158.422 7.5588 158.148C6.83075 157.874 6.16598 157.455 5.60483 156.917C5.04369 156.378 4.5979 155.731 4.29452 155.015C3.99115 154.298 3.83652 153.528 3.84003 152.75C3.8424 151.971 4.00056 151.201 4.30519 150.484C4.60982 149.767 5.05477 149.118 5.61385 148.576C6.17293 148.034 6.83485 147.609 7.56064 147.326C8.28643 147.043 9.06143 146.909 9.84003 146.93H9.90003C10.6771 146.895 11.4532 147.018 12.1813 147.292C12.9093 147.566 13.5741 147.985 14.1352 148.523C14.6964 149.062 15.1422 149.709 15.4455 150.425C15.7489 151.142 15.9035 151.912 15.9 152.69C15.899 153.469 15.7418 154.24 15.4376 154.958C15.1335 155.675 14.6886 156.325 14.1292 156.867C13.5699 157.41 12.9074 157.835 12.181 158.117C11.4546 158.399 10.679 158.533 9.90003 158.51ZM9.90003 162.94H9.96003C12.6139 162.85 15.1283 161.73 16.9709 159.818C18.8135 157.906 19.8395 155.351 19.8317 152.696C19.8239 150.041 18.7829 147.492 16.9291 145.591C15.0754 143.69 12.5544 142.585 9.90003 142.51H9.84003C8.51609 142.509 7.20557 142.775 5.98695 143.293C4.76834 143.81 3.66668 144.568 2.74794 145.522C1.82921 146.475 1.11229 147.604 0.640123 148.841C0.167954 150.078 -0.0497568 151.397 2.58349e-05 152.72C-0.0414843 154.05 0.184609 155.375 0.664894 156.617C1.14518 157.858 1.86987 158.99 2.79599 159.946C3.72211 160.902 4.83078 161.662 6.05625 162.182C7.28172 162.701 8.59903 162.969 9.93003 162.97M9.93003 66.43H9.87003C9.09247 66.4638 8.31613 66.3395 7.58805 66.0645C6.85997 65.7894 6.1953 65.3694 5.63432 64.83C5.07333 64.2905 4.62771 63.6427 4.32444 62.926C4.02118 62.2092 3.86658 61.4383 3.87003 60.66C3.8724 59.8811 4.03056 59.1106 4.33519 58.3937C4.63982 57.6769 5.08477 57.0282 5.64385 56.4859C6.20293 55.9436 6.86485 55.5186 7.59064 55.2359C8.31643 54.9533 9.09143 54.8187 9.87003 54.84H9.93003C10.8328 54.8344 11.7273 55.0113 12.56 55.36L9.70003 58.52L12.7 61.21L15.37 58.08C15.7804 58.991 15.9535 59.9911 15.8732 60.9871C15.7928 61.983 15.4618 62.9424 14.9107 63.776C14.3597 64.6095 13.6067 65.29 12.7218 65.754C11.8369 66.2181 10.849 66.4506 9.85003 66.43M9.85003 70.85H9.91003C11.2356 70.8548 12.5486 70.5922 13.7704 70.078C14.9922 69.5638 16.0978 68.8084 17.021 67.8572C17.9442 66.906 18.6662 65.7783 19.1437 64.5417C19.6212 63.3051 19.8444 61.9849 19.8 60.66C19.8339 58.6425 19.2891 56.6575 18.23 54.94L20.11 52.84L17.11 50.16L15.44 52.16C13.8115 51.0539 11.8887 50.4617 9.92003 50.46H9.86003C8.53963 50.4567 7.23207 50.7191 6.01523 51.2317C4.79838 51.7443 3.69715 52.4965 2.77711 53.4436C1.85708 54.3907 1.13706 55.5133 0.659962 56.7445C0.182858 57.9756 -0.0415763 59.2903 2.58349e-05 60.61C-0.0401453 61.9391 0.187013 63.2626 0.668025 64.5022C1.14904 65.7418 1.87411 66.8722 2.80022 67.8263C3.72634 68.7804 4.83464 69.5388 6.05938 70.0565C7.28413 70.5742 8.60037 70.8406 9.93003 70.84" fill="#302B25"/>
</svg>
