<svg width="328" height="22" viewBox="0 0 328 22" fill="none" xmlns="http://www.w3.org/2000/svg">
<path d="M22.7699 1.32001L22.7699 5.23001L28.6099 5.23001L28.6099 20.54L32.8699 20.54L32.8699 5.23001L38.7099 5.23001L38.7099 1.32001L22.7699 1.32001ZM88.3199 1.32002L88.3199 13.16L79.3199 1.32001L75.4099 1.32001L75.4099 20.54L79.5799 20.54L79.5799 8.32002L88.8899 20.54L92.4899 20.54L92.4899 1.32002L88.3199 1.32002ZM102.7 1.32002L102.7 20.54L117.35 20.54L117.35 16.78L106.92 16.78L106.92 12.78L115.98 12.78L115.98 8.98002L106.92 8.98002L106.92 5.09002L117.21 5.09002L117.21 1.32002L102.7 1.32002ZM144.46 12.63L149.34 12.63C151.51 12.63 152.46 13.42 152.46 14.72C152.46 16.15 151.35 16.8 149.46 16.8L144.46 16.8L144.46 12.63ZM144.46 5.05002L148.63 5.05002C150.41 5.05002 151.4 5.76002 151.4 7.05002C151.4 8.48002 150.21 9.05002 148.4 9.05002L144.51 9.05002L144.46 5.05002ZM140.34 1.32002L140.34 20.54L149.47 20.54C153.81 20.54 156.67 18.79 156.67 15.27L156.67 15.22C156.67 12.64 155.3 11.34 153.07 10.5C153.845 10.1241 154.496 9.53284 154.945 8.79695C155.394 8.06107 155.621 7.21161 155.6 6.35002L155.6 6.29002C155.616 5.68499 155.508 5.08306 155.281 4.52205C155.053 3.96104 154.713 3.45306 154.28 3.03002C152.904 1.82297 151.107 1.20836 149.28 1.32002L140.34 1.32002ZM206.49 1.32002L206.49 12.32C206.49 15.37 204.92 16.93 202.35 16.93C199.78 16.93 198.21 15.31 198.21 12.18L198.21 1.32002L193.98 1.32002L193.98 12.32C193.98 17.98 197.13 20.87 202.29 20.87C207.45 20.87 210.72 18.01 210.72 12.18L210.72 1.32002L206.49 1.32002ZM218.92 1.32002L218.92 5.23002L224.77 5.23002L224.77 20.54L229 20.54L229 5.23002L234.85 5.23002L234.85 1.32002L218.92 1.32002ZM243.28 20.54L247.51 20.54L247.51 1.32002L243.28 1.32002L243.28 20.54ZM298.77 1.32002L298.77 12.32C298.77 15.37 297.21 16.93 294.63 16.93C292.05 16.93 290.48 15.31 290.48 12.18L290.48 1.32002L286.25 1.32002L286.25 12.32C286.25 17.98 289.4 20.87 294.57 20.87C299.74 20.87 303 18.01 303 12.18L303 1.32002L298.77 1.32002ZM312.99 1.32003L312.99 20.54L327.61 20.54L327.61 16.78L317.18 16.78L317.18 12.78L326.24 12.78L326.24 8.98003L317.18 8.98003L317.18 5.09003L327.47 5.09003L327.47 1.32003L312.99 1.32003ZM0.769867 6.84001C0.769867 10.67 3.27988 11.74 7.13986 12.72C10.3499 13.54 11.0099 14.09 11.0099 15.17L11.0099 15.22C11.0099 16.36 9.95987 17.03 8.23987 17.03C6.10736 16.9747 4.06757 16.1467 2.49988 14.7L-0.000122802 17.7C2.24731 19.6907 5.14755 20.7868 8.14987 20.78C12.2999 20.78 15.2099 18.63 15.2099 14.78L15.2099 14.72C15.2099 11.38 13.0199 9.97001 9.11987 8.95001C5.79987 8.11001 4.96988 7.70001 4.96988 6.43001C4.96988 5.49001 5.81989 4.76001 7.43988 4.76001C9.26221 4.86441 11.0081 5.52785 12.4399 6.66001L14.6399 3.46001C12.6192 1.84234 10.0979 0.979522 7.50986 1.02001C3.57986 1.02001 0.779877 3.32001 0.779876 6.81001M50.2899 10.9L50.2899 10.84C50.2546 10.0629 50.3777 9.28683 50.6516 8.55879C50.9255 7.83074 51.3445 7.16596 51.8832 6.60482C52.4219 6.04368 53.069 5.59789 53.7853 5.29451C54.5016 4.99113 55.272 4.8365 56.0499 4.84001C56.8288 4.84239 57.5993 5.00055 58.3161 5.30518C59.033 5.60981 59.6817 6.05476 60.224 6.61384C60.7663 7.17292 61.1913 7.83484 61.4739 8.56063C61.7566 9.28642 61.8912 10.0614 61.8699 10.84L61.8699 10.9C61.9037 11.6776 61.7794 12.4539 61.5043 13.182C61.2293 13.9101 60.8093 14.5747 60.2698 15.1357C59.7303 15.6967 59.0826 16.1423 58.3658 16.4456C57.649 16.7489 56.8781 16.9035 56.0999 16.9C55.3214 16.8977 54.5513 16.7395 53.835 16.4347C53.1187 16.13 52.4707 15.6849 51.9292 15.1256C51.3877 14.5664 50.9636 13.9044 50.6821 13.1786C50.4005 12.4529 50.2672 11.6781 50.2899 10.9ZM45.8599 10.9L45.8599 10.96C45.9503 13.6139 47.0702 16.1283 48.9823 17.9709C50.8944 19.8135 53.4485 20.8395 56.1039 20.8317C58.7593 20.8239 61.3074 19.7829 63.2087 17.9291C65.1099 16.0754 66.215 13.5544 66.2899 10.9L66.2899 10.84C66.1994 8.18615 65.0795 5.67169 63.1674 3.82911C61.2554 1.98652 58.7012 0.960496 56.0458 0.968294C53.3904 0.976092 50.8423 2.01711 48.941 3.87089C47.0398 5.72467 45.9348 8.24566 45.8599 10.9ZM169.1 10.9L169.1 10.84C169.065 10.063 169.188 9.28684 169.462 8.55879C169.735 7.83075 170.155 7.16597 170.693 6.60483C171.232 6.04369 171.879 5.59789 172.595 5.29452C173.312 4.99114 174.082 4.83651 174.86 4.84002C175.639 4.84239 176.409 5.00055 177.126 5.30518C177.843 5.60982 178.492 6.05477 179.034 6.61385C179.576 7.17293 180.001 7.83484 180.284 8.56063C180.567 9.28642 180.701 10.0614 180.68 10.84L180.68 10.9C180.715 11.6771 180.592 12.4532 180.318 13.1812C180.044 13.9093 179.625 14.5741 179.087 15.1352C178.548 15.6964 177.901 16.1421 177.184 16.4455C176.468 16.7489 175.698 16.9035 174.92 16.9C174.141 16.899 173.369 16.7418 172.652 16.4376C171.934 16.1335 171.285 15.6886 170.743 15.1292C170.2 14.5698 169.775 13.9074 169.493 13.181C169.211 12.4546 169.077 11.679 169.1 10.9ZM164.67 10.9L164.67 10.96C164.76 13.6139 165.88 16.1283 167.792 17.9709C169.704 19.8135 172.259 20.8395 174.914 20.8317C177.569 20.8239 180.117 19.7829 182.019 17.9291C183.92 16.0754 185.025 13.5544 185.1 10.9L185.1 10.84C185.101 9.51608 184.835 8.20557 184.317 6.98695C183.8 5.76833 183.042 4.66667 182.088 3.74794C181.135 2.8292 180.006 2.11229 178.769 1.64012C177.532 1.16795 176.213 0.950237 174.89 1.00002C173.56 0.958509 172.234 1.1846 170.993 1.66489C169.752 2.14517 168.62 2.86987 167.664 3.79598C166.708 4.7221 165.947 5.83078 165.428 7.05625C164.909 8.28172 164.641 9.59902 164.64 10.93M261.18 10.93L261.18 10.87C261.146 10.0925 261.27 9.31613 261.545 8.58805C261.82 7.85997 262.24 7.1953 262.78 6.63432C263.319 6.07333 263.967 5.62771 264.684 5.32444C265.401 5.02117 266.172 4.86658 266.95 4.87002C267.729 4.8724 268.499 5.03056 269.216 5.33519C269.933 5.63982 270.582 6.08477 271.124 6.64385C271.666 7.20293 272.091 7.86485 272.374 8.59064C272.657 9.31643 272.791 10.0914 272.77 10.87L272.77 10.93C272.775 11.8328 272.599 12.7273 272.25 13.56L269.09 10.7L266.4 13.7L269.53 16.37C268.619 16.7804 267.619 16.9535 266.623 16.8732C265.627 16.7928 264.667 16.4618 263.834 15.9107C263 15.3597 262.32 14.6067 261.856 13.7218C261.392 12.8369 261.159 11.849 261.18 10.85M256.76 10.85L256.76 10.91C256.755 12.2356 257.018 13.5486 257.532 14.7704C258.046 15.9922 258.801 17.0978 259.753 18.021C260.704 18.9442 261.832 19.6662 263.068 20.1437C264.305 20.6212 265.625 20.8444 266.95 20.8C268.967 20.8339 270.952 20.2891 272.67 19.23L274.77 21.11L277.45 18.11L275.45 16.44C276.556 14.8115 277.148 12.8887 277.15 10.92L277.15 10.86C277.153 9.53963 276.891 8.23207 276.378 7.01522C275.866 5.79838 275.113 4.69714 274.166 3.77711C273.219 2.85707 272.097 2.13706 270.865 1.65996C269.634 1.18286 268.32 0.958421 267 1.00002C265.671 0.959852 264.347 1.18701 263.108 1.66802C261.868 2.14903 260.738 2.8741 259.784 3.80022C258.829 4.72634 258.071 5.83464 257.553 7.05938C257.036 8.28413 256.769 9.60036 256.77 10.93" fill="#302B25"/>
</svg>
